Coordinates
version=1
nRows=19
nColumns=24
inDegrees=yes

Units are S.I. units (second, meters, Newtons, ...)
Angles are in degrees.

endheader
time	pelvis_tilt	pelvis_list	pelvis_rotation	pelvis_tx	pelvis_ty	pelvis_tz	hip_flexion_r	hip_adduction_r	hip_rotation_r	knee_angle_r	ankle_angle_r	subtalar_angle_r	mtp_angle_r	hip_flexion_l	hip_adduction_l	hip_rotation_l	knee_angle_l	ankle_angle_l	subtalar_angle_l	mtp_angle_l	lumbar_extension	lumbar_bending	lumbar_rotation
      0.45400000	     -0.19815081	      4.85982287	      3.06888718	     -0.78448606	      0.98003042	      0.29184612	     27.35764164	     -3.51890017	     -2.35146832	    -13.65323747	      9.14464102	     -5.85035605	      0.25700029	    -15.57977421	      8.82168776	      3.44684223	     -6.32350809	     11.35623857	     -2.90878589	      0.12634081	     -1.74211477	     -3.09774636	     -1.34146445
      0.45816667	     -0.27934781	      4.88586469	      3.11779370	     -0.77841112	      0.97924950	      0.29201172	     27.30610602	     -3.48117546	     -2.42606055	    -13.62399620	      8.99611045	     -5.71744669	      0.34434784	    -15.42364881	      8.80112029	      3.23500995	     -7.20128237	     11.53672715	     -2.48011480	      0.07683083	     -1.58237728	     -3.13740261	     -1.37527695
      0.46233333	     -0.32485217	      4.88537110	      3.15621691	     -0.77229814	      0.97855512	      0.29218907	     27.20710120	     -3.40929746	     -2.47094501	    -13.64568322	      8.80256094	     -5.63724184	      0.45294053	    -15.27044794	      8.74957613	      2.98643522	     -8.14693932	     11.73552264	     -2.00465471	      0.06030044	     -1.47406946	     -3.12592205	     -1.43613247
      0.46650000	     -0.37482386	      4.88808549	      3.18845853	     -0.76615003	      0.97789097	      0.29238672	     27.11032115	     -3.33731338	     -2.49665710	    -13.72470651	      8.57149652	     -5.59435696	      0.57739013	    -15.08713767	      8.70093446	      2.73368950	     -9.13405308	     11.88695303	     -1.57153296	      0.07734948	     -1.34318179	     -3.12915915	     -1.47599068
      0.47066667	     -0.41230558	      4.86900838	      3.20882565	     -0.75996551	      0.97725835	      0.29260898	     27.00054829	     -3.23734220	     -2.49870242	    -13.85955075	      8.29083794	     -5.59615839	      0.73126655	    -14.88681878	      8.62576787	      2.44140190	    -10.17614543	     12.00789116	     -1.11125537	      0.13586374	     -1.22656459	     -3.10263669	     -1.51535674
      0.47483333	     -0.45858176	      4.84698229	      3.21545272	     -0.75376631	      0.97664916	      0.29285172	     26.91248585	     -3.12968971	     -2.47150172	    -14.06832354	      7.97682345	     -5.68160350	      0.94178382	    -14.64226067	      8.54965083	      2.14075850	    -11.27945965	     12.08725160	     -0.68243319	      0.25652558	     -1.10808705	     -3.06206289	     -1.55048793
      0.47900000	     -0.50883582	      4.81129022	      3.22877446	     -0.74753490	      0.97607042	      0.29309591	     26.81115497	     -3.00966138	     -2.42144777	    -14.28409065	      7.59421385	     -5.78506400	      1.16019153	    -14.37167238	      8.45587324	      1.87611438	    -12.42199497	     12.10313160	     -0.29489068	      0.42385516	     -0.96959409	     -3.01494671	     -1.56843474
      0.48316667	     -0.55346435	      4.77599274	      3.23395173	     -0.74129141	      0.97554218	      0.29335885	     26.70725403	     -2.88799110	     -2.34731299	    -14.54221653	      7.17907971	     -5.92883130	      1.40179306	    -14.07860941	      8.36197969	      1.62461507	    -13.60394034	     12.05647839	      0.04857185	      0.65729538	     -0.83835270	     -2.96500155	     -1.57319058
      0.48733333	     -0.60009359	      4.72773633	      3.23315787	     -0.73503653	      0.97504179	      0.29363803	     26.60552874	     -2.75036202	     -2.24464305	    -14.83097551	      6.73092569	     -6.13838431	      1.66242290	    -13.75598508	      8.25457402	      1.39205706	    -14.83471770	     11.94443933	      0.35715581	      0.96140123	     -0.70320964	     -2.90055499	     -1.56935740
      0.49150000	     -0.63529578	      4.64002325	      3.24124681	     -0.72873281	      0.97461666	      0.29393450	     26.46788963	     -2.57278968	     -2.12722211	    -15.10393503	      6.26490013	     -6.45713994	      2.09612416	    -13.40813600	      8.09210500	      1.13782147	    -16.11704863	     11.71461308	      0.69201249	      1.56421407	     -0.56870345	     -2.78221814	     -1.54018377
      0.49566667	     -0.70678641	      4.60848944	      3.21714584	     -0.72251746	      0.97412134	      0.29424345	     26.43666806	     -2.45297496	     -1.99191677	    -15.51619406	      5.79615692	     -6.66516415	      2.35748673	    -12.98185390	      8.01161001	      0.94004294	    -17.46606293	     11.50910275	      0.86475677	      2.00672726	     -0.41245111	     -2.74297393	     -1.51998080
      0.49983333	     -0.75571399	      4.50239920	      3.21119120	     -0.71623120	      0.97373803	      0.29458919	     26.32522801	     -2.25061268	     -1.81281142	    -15.84426846	      5.33481121	     -7.08134316	      2.73688037	    -12.53652292	      7.82653924	      0.69601255	    -18.87671606	     11.12795586	      1.14895741	      2.77656529	     -0.26047286	     -2.60625257	     -1.47009796
      0.50400000	     -0.78654446	      4.43678795	      3.17596143	     -0.70998318	      0.97338872	      0.29491301	     26.24020946	     -2.09775216	     -1.66646206	    -16.25917799	      4.77867913	     -7.36942325	      4.77414297	    -12.09918069	      7.71001904	      0.54712545	    -20.27857049	     10.60858837	      1.08065604	      7.78360392	     -0.14681202	     -2.51457890	     -1.39790097
      0.50816667	     -0.82487744	      4.33636335	      3.16114038	     -0.70373572	      0.97305942	      0.29524025	     26.17447999	     -1.92416902	     -1.57625124	    -16.71730130	      4.32158538	     -7.47491355	      4.77535019	    -11.59407914	      7.54021940	      0.38174359	    -21.78768853	     10.10227596	      1.23769555	      7.83228598	     -0.02450030	     -2.39101849	     -1.35859760
      0.51233333	     -0.88422834	      4.21479671	      3.12314632	     -0.69756218	      0.97269762	      0.29567164	     26.13404556	     -1.69786170	     -1.34308758	    -17.18539353	      3.97431420	     -8.02467711	      4.77718452	    -10.98064215	      7.32556741	      0.08662107	    -23.43992726	      9.62534232	      1.52759549	      8.06027195	      0.12763925	     -2.23567199	     -1.28734188
      0.51650000	     -0.91673059	      4.06732251	      3.09453403	     -0.69137246	      0.97241913	      0.29608322	     26.06064469	     -1.45610554	     -1.14536992	    -17.65461837	      3.63822144	     -8.45694935	      4.76728533	    -10.37093560	      7.08380811	     -0.13871069	    -25.10858202	      8.98077591	      1.70745794	      8.43827526	      0.24719498	     -2.05503410	     -1.20064490
      0.52066667	     -0.95478506	      3.92245982	      3.06105980	     -0.68520661	      0.97216290	      0.29647241	     26.00745444	     -1.22974112	     -0.99702295	    -18.14478847	      3.27989457	     -8.62573140	      4.75453527	     -9.71963029	      6.85331062	     -0.32206774	    -26.81867632	      8.23480834	      1.76581911	      8.63607903	      0.37850937	     -1.87553390	     -1.12628623
      0.52483333	     -0.93070268	      3.69538348	      2.97767226	     -0.67907108	      0.97198219	      0.29704134	     25.87395263	     -0.86054479	     -0.66499518	    -18.61362635	      3.01817389	     -9.40260322	      4.65907455	     -9.07463886	      6.49759568	     -0.66486242	    -28.61061678	      7.46590525	      1.96406824	      9.74386113	      0.41794976	     -1.59315770	     -1.01665678
      0.52900000	     -0.99305907	      3.54455768	      2.95755352	     -0.67302560	      0.97166044	      0.29740844	     25.92015996	     -0.65391037	     -0.61682161	    -19.26440309	      2.87140432	     -9.50312432	      4.62120832	     -8.29783080	      6.24677096	     -0.82707779	    -30.46176735	      6.63620242	      2.06729114	     10.09665200	      0.55543636	     -1.41178075	     -0.92588348
